<?xml version="1.0" encoding="UTF-8"?>
<svg id="Layer_1" data-name="Layer 1" xmlns="http://www.w3.org/2000/svg" version="1.1" viewBox="0 0 1920 1080">
  <defs>
    <style>
      .cls-1 {
        fill: #000;
      }

      .cls-1, .cls-2, .cls-3, .cls-4 {
        stroke-width: 0px;
      }

      .cls-2 {
        fill: #b4e51d;
      }

      .cls-3 {
        fill: #22b04c;
      }

      .cls-4 {
        fill: #fefefe;
      }
    </style>
  </defs>
  <path class="cls-1" d="M1016.62,527.16h-51.66c-3.34,4.87-5.56,10.25-8.57,15.23-2.62,4.33-4.53,9.09-6.95,13.58-3.12,5.8-5.82,11.84-9.11,17.54-2.44,4.23-4.39,8.67-6.73,12.83.1.24.13.36.19.45.07.1.18.24.27.24,7.24.01,14.47.01,21.89.01v47.06h-160.69v-249.81h159.95v49.22h-115.76v48.69h51.38v44.95h-51.41v59.54c2.93.5,36.41.66,45.44.2,1.27-2.16,2.61-4.35,3.85-6.59,1.63-2.94,3.08-5.98,4.8-8.86,2.16-3.59,4.13-7.3,6.2-10.93,1.7-2.99,3.3-6.1,4.95-9.15,2.32-4.29,4.66-8.58,7.2-12.76,2.82-4.63,5.1-9.6,7.54-14.45.64-1.27,1.54-2.36,2.23-3.57,3.09-5.45,6.05-10.96,9.01-16.47.61-1.14,1.23-2.24,1.94-3.33,1.33-2.02,2.37-4.25,3.58-6.35,3.43-5.94,6.59-12.03,10.09-17.94,1.75-2.95,3.32-6.09,4.98-9.14,2-3.67,4.1-7.31,6.19-10.93,1.84-3.2,3.71-6.42,5.37-9.74,2.03-4.06,4.32-7.95,6.58-11.88,1.55-2.71,3-5.49,4.54-8.22,2.27-4.06,4.57-8.1,6.8-12.16,1.78-3.24,3.8-6.39,5.29-9.77.86-1.95,2.25-3.52,3.11-5.45,1.91-4.33,3.96-8.59,5.97-12.87.2-.43.53-.79.85-1.28h3.44c1.25.9,1.96,2.66,2.29,4.06.62,2.55,2.05,4.66,2.92,7.06,1.09,3.02,2.4,5.99,3.64,8.97,1.2,2.88,2.19,5.87,3.53,8.63,1.87,3.86,3.27,7.89,5,11.79,1.63,3.68,3.07,7.48,4.69,11.15,1.67,3.79,3.3,7.64,4.89,11.45,2.13,5.09,4.52,10.1,6.23,15.39.67,2.07,1.87,3.94,2.67,6,2.78,7.2,5.88,14.28,8.81,21.42,2.19,5.32,4.26,10.71,6.71,15.93,2.69,5.74,5.31,11.55,7.57,17.44,2.1,5.49,4.45,10.89,6.55,16.38,1.42,3.74,3.09,7.45,4.69,11.15,2.24,5.18,4.56,10.34,6.41,15.68.68,1.96,1.63,3.84,2.48,5.71,2.38,5.26,4.31,10.7,6.75,15.92,1.51,3.24,3.04,6.49,4.18,9.86,1.15,3.4,3.31,6.4,3.8,10.03,2.51,3.41,3.17,7.66,5.15,11.35,1.68,3.12,2.59,6.65,3.83,10-.61,1.6,1.77,1.97,1.48,3.61h-43.2c-.9-.68-1.33-1.89-1.73-3.13-1.02-3.19-2.35-6.25-3.69-9.33-1.94-4.43-3.52-9.03-5.31-13.53-.81-2.03-1.87-3.95-2.64-6.02-1.8-4.86-3.73-9.69-5.73-14.47-1.37-3.28-2.92-6.55-4.2-9.86-2.49-6.46-5.51-12.69-7.7-19.27-1.16-3.48-3.02-6.73-4.41-10.14-1.83-4.48-3.45-9.05-5.29-13.53-1.05-2.56-2.43-4.98-3.15-7.61Z"/>
  <path class="cls-2" d="M833.37,427.46v60.68h51.44v32.98h-51.37v71.66c-.06-.07,0,.04.1.11.09.07.21.13.32.13,38.68,0,77.36,0,116.16,0v35.01h-148.84v-237.72h148.13v37.14h-115.94Z"/>
  <path class="cls-3" d="M960.78,521.29c-1.31,4.03-3.88,7.25-5.66,10.9-4.13,8.41-8.41,16.75-12.97,24.93-2.94,5.27-5.43,10.75-8.38,16-2.55,4.54-4.86,9.2-7.28,13.81h-34.82c3.9-5.97,6.71-12.33,10.35-18.24,1.93-3.12,3.6-6.47,5.4-9.72,1.92-3.45,3.83-6.91,5.71-10.37,1.65-3.03,3.18-6.2,4.98-9.13,3.89-6.35,6.38-13.49,11.03-19.4.87-3.31,3.02-6,4.62-8.92,2.06-3.77,4.07-7.58,6.36-11.25,1.75-2.8,3.15-5.93,4.84-8.81,2.52-4.32,4.77-8.78,7.29-13.1,1.73-2.97,3.33-6.09,4.99-9.13,2-3.67,4.1-7.31,6.19-10.93,1.84-3.2,3.6-6.48,5.4-9.72,1.91-3.45,3.68-6.98,5.77-10.35,2.12-3.43,3.74-7.17,5.48-10.81.62-1.29,1.14-2.59,2.25-3.56.34-.3.59-.69.82-1.15,1.78-3.51,3.61-7,5.56-10.42,2.82-4.93,5.67-9.85,8.2-14.94.16-.32.52-.54.94-.96,1.1,2.36,2.23,4.63,3.21,6.97.85,2.02,1.27,4.25,2.33,6.14,1.48,2.65,2.28,5.55,3.53,8.28,1.2,2.61,2.45,5.22,3.19,8.04.26.98,1.03,1.81,1.44,2.76.96,2.22,1.99,4.39,2.69,6.76.63,2.15,1.76,4.24,2.59,6.39,1.45,3.76,3.05,7.49,4.64,11.17,1.59,3.7,3.07,7.47,4.75,11.14,1.77,3.87,3.4,7.82,4.85,11.84.74,2.06,2.02,3.88,2.66,6.01.89,2.98,2.46,5.7,3.5,8.65,1.03,2.91,2.11,5.97,3.68,8.55,3.19,5.22,4.05,11.31,6.98,16.6,1.49,2.69,2.27,5.79,4,8.45.51.78.92,1.81.99,2.98.09,1.29.74,2.63,1.34,3.9,1.32,2.81,2.38,5.75,3.56,8.63,1.14,2.77,2.31,5.53,3.35,8.35.74,2,1.85,3.97,2.71,5.98,1.22,2.86,2.21,5.82,3.49,8.66,1.28,2.85,2.19,5.89,3.55,8.62,1.91,3.84,3.38,7.85,5.03,11.77,2.1,4.99,4.12,10.03,6.21,15.01,1.6,3.81,3.3,7.64,4.9,11.44,2.14,5.09,4.59,10.08,6.19,15.4.36,1.18,1.47,2.08,1.52,3.58h-30.59c-1.03-3.47-2.59-6.95-4.01-10.47-1.29-3.2-2.71-6.36-3.98-9.57-1.32-3.32-2.83-6.56-4.12-9.89-1.28-3.33-2.54-6.7-3.93-9.97-2.07-4.88-4.16-9.76-6.16-14.66-1.73-4.26-3.34-8.61-5.07-12.87-1.34-3.28-2.91-6.55-4.18-9.86-2.47-6.46-5.49-12.7-7.74-19.25-.81-2.36-1.88-4.73-3.06-6.94-.55-1.03,0-2.61-1.84-3.28h-59.27Z"/>
  <path class="cls-1" d="M992.5,460.63h3.08c1.25,1.21,1.81,2.91,2.48,4.51,1.34,3.18,2.62,6.39,3.74,9.66,1.2,3.49,2.59,6.9,4.05,10.28,1.5,3.49,2.81,7.06,4.28,10.56,1.17,2.78,1.9,5.69,2.97,8.49.25.64.91,1.13,1.39,1.7-.03.04-.07.15-.15.21-.09.07-.2.15-.31.15-14.7,0-29.39,0-44.08,0-.53-.85-.35-1.47.08-2.36,3.92-8.11,8.36-15.95,12.45-23.97,2.46-4.83,4.95-9.66,7.46-14.48.8-1.54.7-3.54,2.56-4.75Z"/>
  <path class="cls-4" d="M993.8,471.43c4.01,9.84,7.82,19.19,11.68,28.66h-26.81c4.99-9.45,9.97-18.88,15.13-28.66Z"/>
</svg>